<svg xmlns="http://www.w3.org/2000/svg" viewBox="0 0 512 512"><style>.a{fill:#ED5D51;}.b{fill:#D84F48;}.c{fill:#F1F2F2;}</style><path d="M455 469.1c9.3-9.9 15-23.2 15-37.9V252.9c0-30.5-24.5-55.2-54.8-55.2H96.8c-30.2 0-54.8 24.7-54.8 55.2v178.3c0 14.7 5.7 28 15 37.9L455 469.1 455 469.1z" fill="#F47973"/><path d="M304.6 123.7c1.9-7.2 2.9-15 2.9-23.1 0-38.3-33.1-69.3-50.9-69.3 -19.1 0-52.2 31-52.2 69.3 0 8.1 1 15.9 2.9 23.1H304.6z" class="a"/><path d="M340 162.4c1.9-4.4 3-9.3 3-14.4 0-19.8-16-35.9-35.7-35.9 -10.1 0-19.2 4.2-25.7 11 -6.5-6.8-15.6-11-25.7-11s-19.2 4.2-25.7 11c-6.5-6.8-15.6-11-25.7-11 -19.7 0-35.7 16.1-35.7 35.9 0 5.1 1.1 10 3 14.4H340z" fill="#E4E6E5"/><path d="M512 461.4c0 10.6-8.6 19.2-19.1 19.2H19.1C8.6 480.6 0 472 0 461.4l0 0c0-10.6 8.6-19.2 19.1-19.2h473.8C503.4 442.2 512 450.8 512 461.4L512 461.4z" fill="#00B494"/><path d="M228 85.2c0 5.3-4.3 9.6-9.6 9.6l0 0c-5.3 0-9.6-4.3-9.6-9.6l0 0c0-5.3 4.3-9.6 9.6-9.6l0 0C223.7 75.6 228 79.9 228 85.2L228 85.2z" class="b"/><path d="M265.6 85.2c0 5.3-4.3 9.6-9.6 9.6l0 0c-5.3 0-9.6-4.3-9.6-9.6l0 0c0-5.3 4.3-9.6 9.6-9.6l0 0C261.3 75.6 265.6 79.9 265.6 85.2L265.6 85.2z" class="b"/><path d="M303.1 85.2c0 5.3-4.3 9.6-9.6 9.6l0 0c-5.3 0-9.6-4.3-9.6-9.6l0 0c0-5.3 4.3-9.6 9.6-9.6l0 0C298.8 75.6 303.1 79.9 303.1 85.2L303.1 85.2z" class="b"/><path d="M250.9 58.9c0 5.3-4.3 9.6-9.6 9.6l0 0c-5.3 0-9.6-4.3-9.6-9.6l0 0c0-5.3 4.3-9.6 9.6-9.6l0 0C246.6 49.3 250.9 53.6 250.9 58.9L250.9 58.9z" class="b"/><path d="M280.2 58.9c0 5.3-4.3 9.6-9.6 9.6l0 0c-5.3 0-9.6-4.3-9.6-9.6l0 0c0-5.3 4.3-9.6 9.6-9.6l0 0C275.9 49.3 280.2 53.6 280.2 58.9L280.2 58.9z" class="b"/><rect x="42" y="305.8" width="427.9" height="97.5" class="c"/><path d="M168.7 354.6c0 8.6-7 15.6-15.6 15.6H87.3c-8.6 0-15.6-7-15.6-15.6l0 0c0-8.6 7-15.6 15.6-15.6h65.8C161.7 338.9 168.7 345.9 168.7 354.6L168.7 354.6z" class="a"/><path d="M304.5 354.6c0 8.6-7 15.6-15.6 15.6h-65.8c-8.6 0-15.6-7-15.6-15.6l0 0c0-8.6 7-15.6 15.6-15.6h65.8C297.5 338.9 304.5 345.9 304.5 354.6L304.5 354.6z" class="a"/><path d="M440.3 354.6c0 8.6-7 15.6-15.6 15.6h-65.8c-8.6 0-15.6-7-15.6-15.6l0 0c0-8.6 7-15.6 15.6-15.6h65.8C433.3 338.9 440.3 345.9 440.3 354.6L440.3 354.6z" class="a"/><path d="M484.9 202c-4.6-31.2-31.5-55.2-64-55.2H91.1c-32.5 0-59.4 24-64 55.2 -0.4 2.3-0.7 4.8-0.7 7.2v26.3c0 20.8 16.7 37.7 37.3 37.7 13.6 0 25.5-7.4 32-18.3 6.5 11 18.4 18.3 32 18.3 13.6 0 25.5-7.4 32-18.3 6.5 11 18.4 18.3 32 18.3 13.6 0 25.5-7.4 32-18.3 6.5 11 18.4 18.3 32 18.3 13.6 0 25.5-7.4 32-18.3 6.5 11 18.4 18.3 32 18.3 13.6 0 25.5-7.4 32-18.3 6.5 11 18.4 18.3 32 18.3s25.5-7.4 32-18.3c6.5 11 18.4 18.3 32 18.3 20.6 0 37.3-16.9 37.3-37.7v-26.3C485.6 206.8 485.3 204.4 484.9 202z" class="c"/><path d="M43.7 461.4c0-10.6 8.6-19.2 19.1-19.2H86.8c-0.7-3.5-1.1-7.2-1.1-10.9V266.2c-9.5-6.8-15.6-18-15.6-30.7v-26.3c0-2.5 0.2-4.9 0.7-7.2 4.6-31.2 31.5-55.2 64-55.2H91.1c-32.5 0-59.4 24-64 55.2 -0.4 2.3-0.7 4.8-0.7 7.2v26.3c0 12.6 6.2 23.8 15.6 30.7v165c0 3.7 0.4 7.4 1.1 10.9H19.1C8.6 442.2 0 450.8 0 461.4c0 10.6 8.6 19.2 19.1 19.2h43.7C52.2 480.6 43.7 472 43.7 461.4z" style="fill:#414042;opacity:0.1"/></svg>