<svg xmlns="http://www.w3.org/2000/svg" viewBox="0 0 484 484" width="512" height="512"><path d="M474 92c-9-11-22-16-36-16H141c-8 0-17 2-24 7l-15-53c-2-9-10-15-19-15H59 15c-8 0-15 7-15 15v2c0 8 7 15 15 15h58l30 104 41 144c-23 6-40 27-40 52 0 28 22 51 50 53 -2 7-3 14-3 21 2 25 23 46 48 48 30 2 56-22 56-52 0-6-1-12-3-17h61c-2 7-3 15-3 23 3 25 23 44 48 46 30 2 56-22 56-52 0-29-24-52-53-52H157c-10 0-18-8-19-17 0-10 8-19 18-19h31 165 47c21 0 39-14 44-34l40-163C486 118 483 104 474 92zM361 400c9 0 17 8 17 17s-8 17-17 17 -17-8-17-17S351 400 361 400zM202 400c9 0 17 8 17 17s-8 17-17 17c-9 0-17-8-17-17C185 407 192 400 202 400zM139 151l-8-27c-1-4 1-7 2-9 1-1 4-4 8-4h33l9 40h-43V151zM149 186h41l8 37h-39L149 186zM187 294c-4 0-8-3-10-7l-8-28h37l8 35h-27V294zM274 294H249l-8-35h32v35H274zM274 223h-40l-8-37h48V223zM274 151h-56l-9-40h65V151zM336 294h-27v-35h35L336 294zM351 223h-42v-37h50L351 223zM309 151v-40h66l-8 40H309zM408 286c-1 5-5 8-10 8h-27l8-35h36L408 286zM424 223h-37l8-37H433L424 223zM449 123l-7 28h-40l9-40h29c4 0 7 2 8 4C448 116 450 119 449 123z" fill="#FFF"/></svg>