<svg xmlns="http://www.w3.org/2000/svg" viewBox="0 0 447 447" width="512" height="512"><style>.a{fill:#FFF;}</style><path d="M300 285c-18 6-36 9-55 9 -29 0-57-7-82-21 -20 17-45 27-71 27 -9 0-18-1-26-3l26 141h265l24-131c-5 1-11 2-17 2C340 308 318 300 300 285zM172 411c0 0-1 0-1 0 -4 0-7-3-8-7l-10-70c-1-4 2-9 7-9 4-1 9 2 9 7l10 70C179 406 176 410 172 411zM239 403c0 4-4 8-8 8 -4 0-8-4-8-8v-71c0-4 4-8 8-8 4 0 8 4 8 8V403zM299 404c-1 4-4 7-8 7 0 0-1 0-1 0 -4-1-8-5-7-9l10-70c1-4 5-7 9-7 4 1 8 5 7 9L299 404z" class="a"/><path d="M54 275c1 1 3 1 4 2 1 1 3 1 4 2 9 3 19 5 29 5 27 0 52-12 69-31 24 16 53 25 84 25 21 0 41-4 59-12 15 16 36 26 60 26 7 0 14-1 20-2 1 0 3-1 4-1 2 0 3-1 4-2 32-12 55-42 55-78 0-37-24-69-58-79 -8-67-70-119-144-119 -64 0-118 38-137 91 -5-1-10-1-15-1C41 100 0 141 0 192 0 229 22 260 54 275z" class="a"/></svg>