<svg xmlns="http://www.w3.org/2000/svg" width="595" height="842" viewBox="0 0 595 842"><style>.a{fill:#611A21;}</style><polygon points="512 622 49 495 49 285 512 411 " fill="#F8B517"/><polygon points="512 517 49 390 49 285 512 411 " fill="#F1F3F7"/><polygon points="512 437 49 310 49 285 512 411 " class="a"/><polygon points="512 533 49 406 49 373 512 500 " fill="#D64E3C"/><path d="M49 285c0 0 107-96 306-96L512 412 49 285z" fill="#8E342D"/><path d="M371 388V524c0 16 13 30 30 30 16 0 30-13 30-30V401L371 388z" class="a"/><path d="M312 363v54c0 16 13 30 30 30 16 0 30-13 30-30v-41L312 363z" class="a"/><path d="M156 278c41-21 96-52 143-54 39-7 46 9 31 24 -8 8-29 18-35 23 -6 5-14 10-17 17 -7 16 1 30 16 37 12 6 30 7 44 7 12 0 95-20 86 8 -4 13 17 19 21 6 11-32-17-52-48-49 -21 2-38 12-60 13 -41 1-31-19-16-29 13-12 33-16 41-34 15-32-10-46-37-46 -61 1-127 31-180 59C132 265 143 285 156 278L156 278z" fill="#DEDEDF"/></svg>